<?xml version="1.0" encoding="UTF-8" standalone="no"?>
<!-- Created with Inkscape (http://www.inkscape.org/) -->

<svg
   width="72.190941mm"
   height="72.190941mm"
   viewBox="0 0 72.190941 72.190941"
   version="1.1"
   id="svg30313"
   inkscape:version="1.1 (c68e22c387, 2021-05-23)"
   sodipodi:docname="record-mask.svg"
   xmlns:inkscape="http://www.inkscape.org/namespaces/inkscape"
   xmlns:sodipodi="http://sodipodi.sourceforge.net/DTD/sodipodi-0.dtd"
   xmlns="http://www.w3.org/2000/svg"
   xmlns:svg="http://www.w3.org/2000/svg">
  <sodipodi:namedview
     id="namedview30315"
     pagecolor="#505050"
     bordercolor="#ffffff"
     borderopacity="1"
     inkscape:pageshadow="0"
     inkscape:pageopacity="0"
     inkscape:pagecheckerboard="1"
     inkscape:document-units="mm"
     showgrid="false"
     inkscape:zoom="1.4823794"
     inkscape:cx="214.85728"
     inkscape:cy="164.93754"
     inkscape:window-width="1536"
     inkscape:window-height="841"
     inkscape:window-x="1016"
     inkscape:window-y="1074"
     inkscape:window-maximized="1"
     inkscape:current-layer="layer1"
     inkscape:snap-page="true"
     inkscape:snap-bbox="true"
     inkscape:bbox-nodes="true"
     inkscape:snap-bbox-edge-midpoints="false"
     inkscape:snap-intersection-paths="true"
     inkscape:snap-center="true" />
  <defs
     id="defs30310" />
  <g
     inkscape:label="Layer 1"
     inkscape:groupmode="layer"
     id="layer1"
     transform="translate(-55.289146,-120.61487)">
    <path
       id="path474"
       style="fill:#000000;stroke-width:1.0564"
       d="M 136.42383 0 A 136.42383 136.42381 0 0 0 0 136.42383 A 136.42383 136.42381 0 0 0 136.42383 272.84766 A 136.42383 136.42381 0 0 0 272.84766 136.42383 A 136.42383 136.42381 0 0 0 136.42383 0 z M 136.42383 130.35156 A 6.0713214 6.0713214 0 0 1 142.49609 136.42383 A 6.0713214 6.0713214 0 0 1 136.42383 142.49609 A 6.0713214 6.0713214 0 0 1 130.35156 136.42383 A 6.0713214 6.0713214 0 0 1 136.42383 130.35156 z "
       transform="matrix(0.26458333,0,0,0.26458333,55.289146,120.61487)" />
  </g>
</svg>
