<?xml version="1.0" encoding="UTF-8" standalone="no"?>
<!-- Created with Inkscape (http://www.inkscape.org/) -->

<svg
   width="72.190941mm"
   height="72.190941mm"
   viewBox="0 0 72.190941 72.190941"
   version="1.1"
   id="svg30313"
   inkscape:version="1.1 (c68e22c387, 2021-05-23)"
   sodipodi:docname="record-cover.svg"
   xmlns:inkscape="http://www.inkscape.org/namespaces/inkscape"
   xmlns:sodipodi="http://sodipodi.sourceforge.net/DTD/sodipodi-0.dtd"
   xmlns="http://www.w3.org/2000/svg"
   xmlns:svg="http://www.w3.org/2000/svg">
  <sodipodi:namedview
     id="namedview30315"
     pagecolor="#505050"
     bordercolor="#ffffff"
     borderopacity="1"
     inkscape:pageshadow="0"
     inkscape:pageopacity="0"
     inkscape:pagecheckerboard="1"
     inkscape:document-units="mm"
     showgrid="false"
     inkscape:zoom="2.9647587"
     inkscape:cx="151.95166"
     inkscape:cy="78.758518"
     inkscape:window-width="1920"
     inkscape:window-height="1057"
     inkscape:window-x="1016"
     inkscape:window-y="1074"
     inkscape:window-maximized="1"
     inkscape:current-layer="layer1" />
  <defs
     id="defs30310" />
  <g
     inkscape:label="Layer 1"
     inkscape:groupmode="layer"
     id="layer1"
     transform="translate(-55.289146,-120.61487)">
    <path
       id="path28821"
       style="vector-effect:none;fill:#000000;fill-opacity:0.10514019;stroke-width:0.264583;stroke-linecap:butt;stroke-linejoin:miter;stroke-miterlimit:4;stroke-dasharray:none;stroke-dashoffset:0;stroke-opacity:1;-inkscape-stroke:none;stop-color:#000000"
       d="m 91.384615,120.61487 a 36.095593,36.095593 0 0 0 -36.095469,36.09547 36.095593,36.095593 0 0 0 36.095469,36.09547 36.095593,36.095593 0 0 0 36.095475,-36.09547 36.095593,36.095593 0 0 0 -36.095475,-36.09547 z m 0,26.68519 a 9.4100969,9.4100969 0 0 1 9.410275,9.41028 9.4100969,9.4100969 0 0 1 -9.410275,9.40976 9.4100969,9.4100969 0 0 1 -9.410277,-9.40976 9.4100969,9.4100969 0 0 1 9.410277,-9.41028 z" />
    <path
       sodipodi:type="spiral"
       style="fill:none;fill-rule:evenodd;stroke:#000000;stroke-opacity:0.502336"
       id="path28926"
       sodipodi:cx="-68.689148"
       sodipodi:cy="896.77502"
       sodipodi:expansion="1"
       sodipodi:revolution="32.200001"
       sodipodi:radius="141.85355"
       sodipodi:argument="-17.802359"
       sodipodi:t0="0.31999999"
       transform="matrix(-0.24253392,0,0,0.24460088,74.992258,-62.913451)"
       d="m -113.31348,905.09401 c -4.97552,-24.57635 11.61372,-49.07734 36.103509,-54.02601 25.166157,-5.08535 50.251808,11.90481 55.310545,36.98436 5.195174,25.75597 -12.195913,51.42628 -37.865222,56.59508 -26.345766,5.30501 -52.600752,-12.48701 -57.879612,-38.74608 -5.41485,-26.93557 12.7781,-53.77523 39.626934,-59.16414 27.525372,-5.5247 54.949724,13.0692 60.448677,40.50779 5.634547,28.11517 -13.360289,56.12421 -41.388644,61.73321 -28.704972,5.7444 -57.298707,-13.65138 -63.017747,-42.2695 -5.85425,-29.29477 13.94248,-58.47321 43.150359,-64.30228 29.88457,-5.96412 59.647705,14.23357 65.58681,44.03121 6.0739851,30.47437 -14.524655,60.82221 -44.912067,66.87135 -31.064163,6.18385 -61.996712,-14.81575 -68.155872,-45.79293 -6.29373,-31.65396 15.10683,-63.17122 46.673775,-69.44041 32.243754,-6.40359 64.345738,15.39793 70.7249418,47.55464 6.5134742,32.83355 -15.6890128,65.52025 -48.4354898,72.00947 -33.423344,6.62336 -66.694767,-15.9801 -73.294007,-49.31634 -6.73324,-34.01314 16.27119,-67.86929 50.1972,-74.57854 34.60293,-6.84312 69.043813,16.56227 75.8630745,51.07805 6.9530042,35.19273 -16.8533635,70.21834 -51.9589125,77.14761 -35.782515,7.06289 -71.392862,-17.14445 -78.432142,-52.83977 -7.17278,-36.3723 17.43554,-72.56739 53.720625,-79.71667 36.962098,-7.28268 73.741922,17.72662 81.0012071,54.60148 7.3925676,37.55189 -18.0177091,74.91645 -55.4823351,82.28574 -38.14168,7.50246 -76.090987,-18.3088 -83.570277,-56.36319 -7.61236,-38.73147 18.59988,-77.26552 57.24405,-84.85481 39.32126,-7.72226 78.4400582,18.89097 86.1393398,58.1249 7.8321582,39.91105 -19.1820498,79.6146 -59.0057588,87.42388 -40.500838,7.94206 -80.789131,-19.47314 -88.708401,-59.88662 -8.05197,-41.09062 19.76421,-81.96367 60.767465,-89.99294 41.680416,-8.16186 83.13821732,20.05531 91.2774724,61.64833 8.2717716,42.2702 -20.3463864,84.31276 -62.5291814,92.562 -42.859991,8.38168 -85.487306,-20.63747 -93.846536,-63.41003 -8.49159,-43.44978 20.92855,-86.66185 64.29089,-95.13107 44.039567,-8.6015 87.8363957,21.21963 96.415605,65.17174 8.711404,44.62936 -21.5107206,89.01095 -66.052604,97.70014 -45.219141,8.82132 -90.185491,-21.8018 -98.984671,-66.93346 -8.93123,-45.80893 22.09289,-91.36004 67.814316,-100.2692 46.398714,-9.04114 92.5345894,22.38397 101.553737,68.69517 9.151052,46.9885 -22.6750521,93.70914 -69.576027,102.83827 -47.578286,9.26097 -94.883696,-22.96613 -104.122806,-70.45688 -9.37088,-48.16808 23.25722,-96.05825 71.337741,-105.40734 48.757859,-9.4808 97.232798,23.5483 106.691869,72.21859 9.590714,49.34765 -23.8393804,98.40736 -73.099449,107.97641 -49.937431,9.70063 -99.581911,-24.13047 -109.260941,-73.98031 -9.81054,-50.52721 24.42155,-100.75646 74.861166,-110.54547 51.117001,-9.92047 101.931019,24.71263 111.830002,75.74202 10.030388,51.70679 -25.0037077,103.10558 -76.622872,113.11453 -52.296576,10.14031 -104.280136,-25.29478 -114.399066,-77.50372 -10.25023,-52.88636 25.58587,-105.45469 78.384581,-115.6836 53.47614,-10.36016 106.62925,25.87695 116.968135,79.26543 10.470072,54.06593 -26.1680333,107.80381 -80.146296,118.25267 -54.65571,10.58003 -108.97837,-26.45911 -119.5372,-81.02715 -10.68992,-55.24549 26.75019,-110.15293 81.908006,-120.82173 55.835278,-10.79984 111.327491,27.04127 122.106267,82.78886 10.909767,56.42506 -27.3323564,112.50205 -83.669718,123.39085 -57.014845,11.0196 -113.676615,-27.62349 -124.675335,-84.55062 -11.12961,-57.60463 27.91452,-114.85118 85.431431,-125.95987 58.194413,-11.23954 116.025739,28.2056 127.2444,86.31229 11.349468,58.78419 -28.496679,117.2003 -87.193141,128.5289 -59.37398,11.4594 -118.37487,-28.78773 -129.81347,-88.07397 -11.56932,-59.96376 29.07884,-119.54943 88.954857,-131.098 60.553546,-11.67925 120.723994,29.36992 132.382532,89.83571 11.789176,61.14333 -29.661001,121.89856 -90.716564,133.66706 -61.733115,11.8991 -123.073125,-29.95208 -134.951595,-91.59741 -12.00904,-62.3229 30.24316,-124.24769 92.478272,-136.23614 62.912679,-12.11896 125.422256,30.53425 137.520664,93.35914 12.228891,63.50246 -30.825321,126.59681 -94.239986,138.80521 -64.09225,12.3388 -127.77139,-31.11642 -140.08973,-95.12086 -12.44875,-64.68203 31.40748,-128.94595 96.001697,-141.37426 65.27181,-12.55868 130.120523,31.69856 142.658797,96.88255 12.668611,65.86159 -31.98964,131.29507 -97.763409,143.94337 -66.451375,12.7785 -132.469655,-32.28076 -145.227865,-98.6443 -12.88847,-67.04116 32.5718,-133.64423 99.525122,-146.5124 67.630941,-12.99841 134.818796,32.86288 147.79693,100.40598 13.108337,68.22072 -33.153959,135.99332 -101.286833,149.08142 -68.810509,13.2183 -137.167929,-33.445 -150.365999,-102.16765 -13.3282,-69.40029 33.73612,-138.3425 103.048547,-151.65053 69.99007,-13.43813 139.517073,34.0272 152.935062,103.9294 C 73.933416,943.29247 26.067073,1013.4043 -44.424906,1026.9322 -115.59454,1040.5902 -186.29112,992.32286 -199.92903,921.24111 -213.69697,849.48169 -165.0286,778.20032 -93.357068,764.45244 -21.00787,750.57458 50.858286,799.64396 64.716127,871.90527 78.703928,944.84425 29.233533,1017.2952 -43.617551,1031.263 -117.14631,1045.3607 -190.18205,995.48932 -204.25981,922.04846 -218.46748,847.92992 -168.19506,774.30939 -94.164422,760.12167 -19.456098,745.80406 54.749216,796.4775 69.046905,871.09791 83.474443,946.39602 32.399994,1021.1861 -42.810196,1035.5938 c -42.914595,8.2209 -88.189254,-4.3307 -120.797984,-33.4015" />
  </g>
</svg>
